# Blender 4.3.2
# www.blender.org
mtllib sandstone_diagonal_single_arch_stepped.mtl
o sandstone_diagonal_single_arch_stepped
v 1.151705 0.593750 -0.275401
v 0.953827 0.514935 -0.473634
v 0.183131 0.514935 0.297062
v 0.381364 0.593750 0.494940
v 1.717012 1.000000 0.288840
v 0.710294 1.000000 -0.717878
v 1.717012 0.593750 0.288840
v 0.710294 0.593750 -0.717878
v -0.061114 1.000000 0.053529
v 0.945606 1.000000 1.060247
v -0.061114 0.593750 0.053529
v 0.945605 0.593750 1.060248
v 0.710294 0.593750 -0.717878
v 0.710294 0.518750 -0.717878
v -0.061114 0.593750 0.053529
v -0.061114 0.518750 0.053529
v 0.710294 0.518750 -0.717878
v -0.061114 0.518750 0.053529
v 0.795484 0.359732 -0.631978
v 0.710294 0.362500 -0.717878
v -0.061114 0.362500 0.053529
v 0.024788 0.359732 0.138719
v 1.717012 0.362500 0.288840
v 1.631111 0.359732 0.203650
v 0.860415 0.359732 0.974346
v 0.945605 0.362500 1.060248
v 1.708978 0.518750 0.296874
v 0.998336 0.518750 1.007517
v 1.717012 0.593750 0.288840
v 1.717012 0.518750 0.288840
v 1.472768 0.514936 0.045307
v 0.945605 0.593750 1.060248
v 0.702072 0.514936 0.816003
v 0.945605 0.518750 1.060248
v 0.709761 0.156250 -0.717345
v 0.710704 -0.000000 -0.716401
v -0.060580 0.156250 0.052996
v -0.059637 0.000000 0.053940
v 1.716037 0.156250 0.288931
v 0.945696 0.156250 1.059272
v 1.274534 0.593750 -0.152571
v 0.504193 0.593750 0.617770
v 1.715535 0.000000 0.288430
v 0.945194 0.000000 1.058771
vn 0.1887 -0.9634 0.1905
vn 0.1903 -0.9636 0.1880
vn 0.1912 -0.9626 0.1919
vn 0.1915 -0.9626 0.1915
vn -0.7071 -0.0000 -0.7071
vn 0.7071 -0.0000 -0.7071
vn 0.7071 -0.0000 0.7071
vn -0.7071 -0.0000 0.7071
vn -0.0000 1.0000 -0.0000
vn 0.7080 -0.0007 -0.7062
vn 0.7078 -0.0008 -0.7064
vn 0.7090 -0.0044 -0.7052
vn 0.7086 -0.0015 -0.7056
vn 0.7107 0.0010 -0.7035
vn 0.7067 0.0014 -0.7076
vn 0.6515 -0.2617 -0.7121
vn -0.7075 -0.0044 0.7067
vn -0.7080 -0.0007 0.7062
vn -0.7086 -0.0015 0.7056
vn -0.7112 -0.0023 0.7030
vn -0.7066 0.0015 0.7076
vn -0.6511 -0.2618 0.7124
vn 0.8664 -0.0415 0.4976
vn 0.4977 -0.0415 0.8664
vn -0.4609 -0.5370 -0.7066
vn -0.6024 -0.3620 -0.7114
vn -0.6053 -0.5108 -0.6105
vn -0.6055 -0.5095 -0.6114
vn 0.7948 -0.1097 -0.5969
vn 0.7040 0.0006 -0.7102
vn 0.8643 0.0397 -0.5015
vn 0.8099 0.0743 0.5819
vn 0.7247 -0.1768 0.6660
vn 0.7122 0.2578 0.6529
vn 0.6530 0.2577 0.7122
vn -0.7177 0.1732 0.6744
vn -0.5015 0.0397 0.8642
vn -0.7077 -0.0064 0.7065
vn -0.4007 -0.8243 -0.4001
vn -0.4035 -0.8198 -0.4064
vn -0.4057 -0.8199 -0.4039
vn -0.4003 -0.8218 -0.4055
vn -0.7053 -0.0036 0.7089
vn -0.7065 -0.0007 0.7077
vn -0.7062 -0.0007 0.7080
vn -0.1915 -0.9626 -0.1915
vn -0.1889 -0.9636 -0.1891
vn -0.1931 -0.9630 -0.1883
vn 0.7071 0.0040 0.7071
vn 0.4025 -0.8240 0.3988
vn 0.4035 -0.8199 0.4062
vn 0.4063 -0.8209 0.4013
vn 0.4015 -0.8212 0.4055
vn -0.8096 0.0772 -0.5819
vn -0.6866 0.1779 -0.7049
vn -0.7061 0.3503 -0.6154
vn -0.6528 0.2605 -0.7114
vn 0.7181 0.1729 -0.6741
vn 0.5017 0.0398 -0.8641
vn 0.7078 -0.0062 -0.7064
vn 0.7287 -0.4912 0.4772
vn 0.6019 -0.3643 0.7107
vn 0.6046 -0.5127 0.6096
vn 0.6042 -0.5133 0.6095
vn -0.6315 0.1520 0.7603
vn -0.7057 0.0004 0.7085
vn -0.9066 0.0632 0.4172
vn 0.0002 -1.0000 -0.0002
vn 0.0003 -1.0000 0.0003
vn -0.0000 -1.0000 -0.0000
vn -0.4978 -0.0411 -0.8663
vn -0.9085 -0.0636 -0.4130
vn -0.7024 -0.0022 0.7118
vn -0.7040 0.0006 0.7102
vn -0.7056 -0.0015 0.7086
vn -0.7075 -0.3513 0.6132
vn 0.7045 -0.0036 -0.7096
vn 0.7062 -0.0007 -0.7080
vn 0.7124 -0.2619 -0.6511
vn 0.7031 -0.0038 -0.7111
vn 0.7046 0.0019 -0.7096
vn 0.7056 -0.0015 -0.7086
vt 0.000000 0.720792
vt 1.000000 0.720792
vt 1.000000 1.000000
vt 0.000000 1.000000
vt 0.000000 0.593750
vt 1.000000 0.593750
vt 1.000000 0.000000
vt -0.000000 0.000000
vt 0.000000 0.581250
vt 1.000000 0.581250
vt 1.000000 0.656250
vt 0.000000 0.656250
vt 1.000000 0.592195
vt 0.560799 0.590668
vt 0.757610 0.513059
vt 1.000000 0.515166
vt 1.000000 0.517904
vt 0.757225 0.516495
vt 0.917118 0.359431
vt 1.000000 0.358847
vt 0.757339 0.514298
vt 1.000000 0.518058
vt 1.000000 0.591972
vt 0.560522 0.591972
vt 1.000000 0.516885
vt 0.757775 0.514457
vt 0.914152 0.376938
vt 1.000000 0.377704
vt 1.000000 0.748019
vt 0.000000 0.748019
vt 0.000000 0.476562
vt 1.000000 0.476562
vt 0.000000 0.717692
vt 1.000000 0.717692
vt 0.000000 0.156952
vt 0.085027 0.356424
vt 0.000000 0.359610
vt 0.000000 0.781250
vt 1.000000 0.781250
vt 1.000000 0.156542
vt 1.000000 0.362413
vt 0.914287 0.361449
vt 1.000000 0.250000
vt 0.000000 0.250000
vt 0.000000 0.000000
vt 0.242310 0.517108
vt 0.438727 0.593635
vt 0.000030 0.593809
vt 0.000000 0.520849
vt 0.000000 0.719242
vt 1.000000 0.719242
vt 0.000000 0.466701
vt 1.000000 0.466701
vt 1.000000 0.722656
vt 0.000000 0.722656
vt 0.000000 0.468750
vt 1.000000 0.468750
vt 1.000000 0.750000
vt 0.000000 0.750000
vt 1.000000 0.157907
vt 1.000000 0.358414
vt 0.917298 0.358581
vt 0.000000 0.156867
vt 0.084849 0.361123
vt 0.000000 0.362846
vt 0.000000 0.502032
vt 1.000000 0.502032
vt 1.000000 0.716718
vt 0.000000 0.716718
vt 0.084636 0.359602
vt 0.242668 0.518650
vt 0.000000 0.519417
vt 0.000000 0.359659
vt 0.242943 0.517963
vt 0.438954 0.594140
vt 0.000000 0.594140
vt 0.000000 0.521650
vt 0.000000 0.363409
vt 0.085619 0.360120
vt 0.241974 0.512289
vt 0.000000 0.517172
s 0
usemtl Sandstone_Stretched
f 3/1/1 2/2/2 1/3/3 4/4/4
f 8/5/5 11/6/5 9/3/5 6/4/5
f 7/5/6 8/6/6 6/3/6 5/4/6
f 12/5/7 7/6/7 5/3/7 10/4/7
f 11/5/8 12/6/8 10/3/8 9/4/8
f 10/7/9 5/3/9 6/4/9 9/8/9
f 14/9/5 16/10/5 15/11/5 13/12/5
f 13/13/10 1/14/11 2/15/12 17/16/10
f 17/17/13 2/18/14 19/19/15 20/20/16
f 33/21/17 34/22/18 32/23/18 42/24/18
f 34/25/19 33/26/20 25/27/21 26/28/22
f 23/3/23 30/10/7 34/9/7 26/4/24
f 34/9/7 30/10/7 29/11/7 32/12/7
f 36/29/5 38/30/5 37/31/5 35/32/5
f 39/3/25 40/4/26 25/33/27 24/34/28
f 39/35/29 24/36/30 23/37/31
f 40/38/32 39/39/33 23/3/34 26/4/35
f 40/40/36 26/41/37 25/42/38
f 24/43/39 25/44/40 33/45/41 31/7/42
f 3/46/43 4/47/44 15/48/45 18/49/45
f 42/50/46 41/51/46 31/3/47 33/4/48
f 44/52/49 43/53/49 39/54/49 40/55/49
f 22/56/50 19/57/51 2/58/52 3/59/53
f 35/3/54 37/4/55 21/38/56 20/39/57
f 35/60/58 20/61/59 19/62/60
f 37/1/61 35/2/62 19/3/63 22/4/64
f 37/63/65 22/64/66 21/65/67
f 4/66/68 1/67/69 41/68/70 42/69/70
f 18/3/5 17/4/5 20/38/71 21/39/72
f 22/70/73 3/71/74 18/72/75 21/73/76
f 31/74/77 41/75/78 29/76/78 30/77/78
f 23/78/79 24/79/80 31/80/81 30/81/82
l 27 28
