# Blender 4.3.2
# www.blender.org
mtllib sandstone_diagonal_rectangle_window_top.mtl
o sandstone_diagonal_rectangle_window_top
v 1.695468 0.003088 0.261553
v 0.920010 0.003088 1.037013
v 1.693549 1.000231 0.261585
v 0.919599 1.000231 1.035536
v 1.184030 1.000231 -0.247933
v 0.410081 1.000230 0.526018
v 1.464580 0.003088 0.030665
v 0.818013 0.003088 0.935015
v 1.591740 1.000231 0.159776
v 0.817790 1.000231 0.933727
v 0.919661 0.850230 1.035757
v 1.693837 0.850231 0.261580
v 0.410001 0.850230 0.526098
v 1.184177 0.675577 -0.248079
v 0.817823 0.850230 0.933920
v 1.463109 0.675577 0.030853
v 0.802237 0.003088 0.950790
v 0.394226 0.850230 0.541873
v 0.802048 0.850230 0.949695
v 0.673077 0.002486 0.821631
v 0.394225 0.674365 0.541873
v 0.672888 0.674365 0.820536
v 0.689864 0.002486 0.804891
v 0.674543 0.003088 -0.759369
v -0.100915 0.003088 0.016090
v 0.674511 1.000230 -0.757451
v -0.099438 1.000230 0.016501
v 0.905432 0.003088 -0.528482
v 0.001083 0.003088 0.118087
v 0.776320 1.000230 -0.655642
v 0.002371 1.000230 0.118310
v -0.099659 0.850230 0.016439
v 0.674516 0.850230 -0.757738
v 0.002178 0.850230 0.118276
v 0.905244 0.675577 -0.527011
v -0.014692 0.003088 0.133863
v -0.013597 0.850230 0.134052
v 0.114468 0.002485 0.263022
v 0.115563 0.674365 0.263212
v 0.131171 0.002985 0.246244
vn 0.0008 -1.0000 0.0005
vn 0.7068 0.0010 -0.7074
vn 0.7071 0.0013 0.7071
vn -0.7071 0.0008 0.7071
vn -0.0000 1.0000 -0.0000
vn 0.7071 0.0006 -0.7071
vn 0.7068 0.0015 -0.7074
vn 0.7071 0.0011 0.7071
vn -0.7074 0.0008 0.7068
vn -0.7071 -0.0000 0.7071
vn 0.0008 -1.0000 -0.0008
vn 0.0023 -1.0000 0.0023
vn -0.7069 -0.0014 -0.7073
vn -0.0001 -1.0000 -0.0001
vn 0.7074 0.0010 -0.7068
vn -0.7071 0.0013 -0.7071
vn 0.7074 0.0015 -0.7068
vn -0.7071 0.0011 -0.7071
vn -0.7068 0.0008 0.7074
vn 0.0063 -0.9999 -0.0091
vn 0.7073 -0.0014 0.7069
vt 0.000001 1.000000
vt 0.000000 0.000000
vt 0.099986 0.000000
vt 0.226576 0.000968
vt 0.226335 1.000000
vt 0.777013 0.320532
vt 0.900278 0.002640
vt 1.000000 0.000000
vt 1.003012 0.146676
vt 0.999467 0.124723
vt 0.000975 0.124723
vt 0.001147 0.000000
vt 0.999373 0.000000
vt 0.101114 0.149277
vt 0.000000 0.149521
vt 0.000064 0.000244
vt 0.101114 0.000000
vt 0.900093 1.014566
vt 0.900093 -0.088390
vt 0.500000 -0.088390
vt 0.500000 1.014566
vt 1.000000 1.000000
vt 0.900093 0.000000
vt 0.900093 1.000000
vt 0.483333 0.148741
vt 0.102223 0.148741
vt 0.102501 0.000000
vt 0.483333 0.000000
vt 0.503798 0.320532
vt 0.503798 0.000000
vt 0.100755 1.000000
vt 0.000000 1.000000
vt 0.000267 0.150371
vt 0.100755 0.150190
vt 1.000000 1.000000
vt 0.000000 1.000000
vt 0.000975 0.148160
vt 0.999467 0.148160
vt 0.773844 1.000000
vt 1.000000 1.000000
vt 0.130618 0.148457
vt 0.130618 1.000000
vt 0.104371 0.999980
vt 0.104371 0.148437
vt 0.500597 1.033217
vt 0.500597 1.013876
vt 0.899705 1.013875
vt 0.899705 1.033216
vt 0.234083 0.325531
vt 0.233469 1.000000
vt 0.109749 0.999389
vt 0.110364 0.147002
vt 0.501009 0.147001
vt 0.501009 0.325531
vt 0.504745 0.000000
vt 0.504745 1.000000
vt 0.231314 1.000000
vt 0.231578 0.000000
vt 0.000000 0.000000
vt 0.100000 0.000000
vt 0.997288 0.331613
vt 0.996607 1.000000
vt 0.232147 0.997880
vt 0.234168 0.329949
vt 0.999999 1.000000
vt 0.773664 1.000000
vt 0.773438 0.000946
vt 0.900014 0.000000
vt 1.000000 -0.000000
vt 0.230582 0.320532
vt 0.004584 0.146675
vt 0.004722 0.000000
vt 0.104445 0.000000
vt 0.000584 0.151098
vt 0.000687 0.000000
vt 0.998742 0.000000
vt 0.998931 0.151098
vt 1.000000 0.149277
vt 0.898950 0.000244
vt 0.898886 0.149521
vt 0.099907 1.014566
vt 0.099907 -0.088390
vt 0.000000 1.014566
vt 0.000000 -0.088390
vt 0.897633 0.148741
vt 0.897633 0.000000
vt 0.479596 0.000000
vt 0.479318 0.148741
vt 1.000000 0.147090
vt 0.899512 0.147271
vt 0.899245 1.000000
vt 0.229954 1.000000
vt 0.003798 1.000000
vt 0.889527 0.148457
vt 0.863281 0.148437
vt 0.863281 0.999980
vt 0.889527 1.000000
vt 0.099028 1.033216
vt 0.099028 1.013875
vt 0.767935 0.325531
vt 0.891655 0.147001
vt 0.892270 0.999389
vt 0.768550 1.000000
vt 0.777911 0.000000
vt 0.778176 1.000000
vt 0.083527 0.328610
vt 0.765625 0.329290
vt 0.763505 1.000000
vt 0.081862 0.997979
s 0
usemtl Sandstone_Stretched
f 1/1/1 2/2/1 8/3/1 23/4/1 7/5/1
f 16/6/2 9/7/2 3/8/2 12/9/2
f 11/10/3 12/11/3 3/12/3 4/13/3
f 15/14/4 11/15/4 4/16/4 10/17/4
f 10/18/5 9/19/5 5/20/5 6/21/5
f 4/22/5 3/8/5 9/23/5 10/24/5
f 13/25/4 15/26/4 10/27/4 6/28/4
f 14/29/6 5/30/6 9/7/6 16/6/6
f 8/31/4 2/32/4 11/33/4 15/34/4
f 2/35/3 1/36/3 12/37/3 11/38/3
f 7/39/7 16/6/7 12/9/7 1/40/7
f 19/41/8 17/42/8 8/43/8 15/44/8
f 13/45/5 18/46/5 19/47/5 15/48/5
f 22/49/9 20/50/9 17/51/9 19/52/9
f 18/53/10 21/54/10 22/49/10 19/52/10
f 21/55/11 14/56/11 16/57/11 22/58/11
f 20/59/12 23/59/12 8/60/12 17/59/12
f 16/61/13 7/62/13 20/63/13 22/64/13
f 24/65/14 28/66/14 40/67/14 29/68/14 25/69/14
f 35/70/15 33/71/15 26/72/15 30/73/15
f 32/74/16 27/75/16 26/76/16 33/77/16
f 34/78/4 31/8/4 27/79/4 32/80/4
f 31/81/5 6/21/5 5/20/5 30/82/5
f 27/83/5 31/81/5 30/82/5 26/84/5
f 13/85/4 6/86/4 31/87/4 34/88/4
f 14/29/6 35/70/6 30/73/6 5/30/6
f 29/40/4 34/89/4 32/90/4 25/91/4
f 25/32/16 32/74/16 33/77/16 24/40/16
f 28/92/17 24/93/17 33/71/17 35/70/17
f 37/94/18 34/95/18 29/96/18 36/97/18
f 13/45/5 34/98/5 37/99/5 18/46/5
f 39/100/19 37/101/19 36/102/19 38/103/19
f 18/53/10 37/101/10 39/100/10 21/54/10
f 21/55/11 39/104/11 35/105/11 14/56/11
f 38/59/20 36/59/20 29/60/20 40/59/20
f 35/106/21 39/107/21 38/108/21 28/109/21
