# Blender 4.3.2
# www.blender.org
mtllib sandstone_diagonal_single_arch_stepped.mtl
o sandstone_diagonal_single_arch_stepped
v 1.151705 0.593750 -0.275401
v 0.953827 0.514935 -0.473634
v 0.183131 0.514935 0.297062
v 0.381364 0.593750 0.494940
v 1.703754 1.000000 0.275582
v 0.683778 1.000000 -0.744395
v 1.703754 0.593750 0.275582
v 0.683778 0.593750 -0.744395
v -0.087630 1.000000 0.027012
v 0.932347 1.000000 1.046988
v -0.087630 0.593750 0.027012
v 0.932347 0.593750 1.046989
v 0.683778 0.593750 -0.744395
v 0.683778 0.518750 -0.744395
v -0.087630 0.593750 0.027012
v -0.087630 0.518750 0.027012
v 0.683778 0.518750 -0.744395
v -0.087630 0.518750 0.027012
v 0.804323 0.359732 -0.623139
v 0.683778 0.362500 -0.744395
v -0.087630 0.362500 0.027012
v 0.033626 0.359732 0.147558
v 1.703754 0.362500 0.275582
v 1.631111 0.359732 0.203650
v 0.860415 0.359732 0.974346
v 0.932347 0.362500 1.046989
v 1.708978 0.518750 0.296874
v 0.998336 0.518750 1.007517
v 1.703754 0.593750 0.275582
v 1.703754 0.518750 0.275582
v 1.472768 0.514936 0.045307
v 0.932347 0.593750 1.046989
v 0.702072 0.514936 0.816003
v 0.932347 0.518750 1.046989
v 0.683245 0.156250 -0.743862
v 0.684188 -0.000000 -0.742918
v -0.087096 0.156250 0.026479
v -0.086153 0.000000 0.027423
v 1.702779 0.156250 0.275673
v 0.932438 0.156250 1.046014
v 1.274534 0.593750 -0.152571
v 0.504193 0.593750 0.617770
v 1.702277 0.000000 0.275172
v 0.931936 0.000000 1.045513
vn 0.1887 -0.9634 0.1905
vn 0.1903 -0.9636 0.1880
vn 0.1912 -0.9626 0.1919
vn 0.1915 -0.9626 0.1915
vn -0.7071 -0.0000 -0.7071
vn 0.7071 -0.0000 -0.7071
vn 0.7071 -0.0000 0.7071
vn -0.7071 -0.0000 0.7071
vn -0.0000 1.0000 -0.0000
vn 0.7080 -0.0006 -0.7063
vn 0.7077 -0.0006 -0.7065
vn 0.7090 -0.0042 -0.7052
vn 0.7084 -0.0012 -0.7058
vn 0.7105 0.0014 -0.7037
vn 0.7064 0.0017 -0.7078
vn 0.6521 -0.2615 -0.7116
vn -0.7076 -0.0044 0.7066
vn -0.7081 -0.0008 0.7062
vn -0.7087 -0.0017 0.7055
vn -0.7113 -0.0025 0.7029
vn -0.7067 0.0014 0.7075
vn -0.6507 -0.2619 0.7127
vn 0.8664 -0.0415 0.4976
vn 0.4977 -0.0415 0.8664
vn -0.4863 -0.4770 -0.7321
vn -0.6189 -0.2952 -0.7279
vn -0.6294 -0.4485 -0.6346
vn -0.6295 -0.4471 -0.6354
vn 0.7922 -0.1135 -0.5996
vn 0.7035 0.0006 -0.7107
vn 0.8638 0.0401 -0.5022
vn 0.8099 0.0743 0.5819
vn 0.7247 -0.1768 0.6660
vn 0.7122 0.2578 0.6529
vn 0.6530 0.2577 0.7122
vn -0.7157 0.1737 0.6764
vn -0.5022 0.0401 0.8638
vn -0.7083 -0.0065 0.7059
vn -0.4007 -0.8243 -0.4001
vn -0.4035 -0.8198 -0.4064
vn -0.4057 -0.8199 -0.4039
vn -0.4003 -0.8218 -0.4055
vn -0.7054 -0.0035 0.7088
vn -0.7066 -0.0005 0.7076
vn -0.7063 -0.0005 0.7080
vn -0.1915 -0.9626 -0.1915
vn -0.1889 -0.9636 -0.1891
vn -0.1931 -0.9630 -0.1883
vn 0.7071 0.0040 0.7071
vn 0.4182 -0.8083 0.4145
vn 0.4191 -0.8040 0.4218
vn 0.4219 -0.8051 0.4169
vn 0.4171 -0.8054 0.4211
vn -0.8096 0.0772 -0.5819
vn -0.6866 0.1779 -0.7049
vn -0.7061 0.3503 -0.6154
vn -0.6528 0.2605 -0.7114
vn 0.7230 0.1715 -0.6692
vn 0.5006 0.0391 -0.8648
vn 0.7068 -0.0059 -0.7074
vn 0.6646 -0.6226 0.4131
vn 0.5516 -0.5096 0.6604
vn 0.5380 -0.6448 0.5430
vn 0.5375 -0.6453 0.5428
vn -0.6161 0.1367 0.7757
vn -0.7065 0.0004 0.7077
vn -0.9072 0.0623 0.4160
vn 0.0002 -1.0000 -0.0002
vn 0.0003 -1.0000 0.0003
vn -0.0000 -1.0000 -0.0000
vn -0.4978 -0.0411 -0.8663
vn -0.9085 -0.0636 -0.4130
vn -0.7026 -0.0018 0.7116
vn -0.7043 0.0009 0.7099
vn -0.7058 -0.0012 0.7084
vn -0.7068 -0.3511 0.6141
vn 0.7045 -0.0037 -0.7097
vn 0.7062 -0.0008 -0.7081
vn 0.7127 -0.2620 -0.6507
vn 0.7029 -0.0039 -0.7112
vn 0.7045 0.0018 -0.7097
vn 0.7055 -0.0017 -0.7087
vt 0.000000 0.720792
vt 1.000000 0.720792
vt 1.000000 1.000000
vt 0.000000 1.000000
vt 0.000000 0.593750
vt 1.000000 0.593750
vt 1.000000 0.000000
vt -0.000000 0.000000
vt 0.000000 0.581250
vt 1.000000 0.581250
vt 1.000000 0.656250
vt 0.000000 0.656250
vt 1.000000 0.592195
vt 0.540291 0.590668
vt 0.734173 0.513059
vt 1.000000 0.515166
vt 1.000000 0.517904
vt 0.735078 0.516495
vt 0.880206 0.359431
vt 1.000000 0.358847
vt 0.774565 0.514298
vt 1.000000 0.518058
vt 1.000000 0.591972
vt 0.580208 0.591972
vt 1.000000 0.516885
vt 0.775001 0.514457
vt 0.928917 0.376938
vt 1.000000 0.377704
vt 1.000000 0.748019
vt 0.000000 0.748019
vt 0.000000 0.476562
vt 1.000000 0.476562
vt 0.000000 0.717692
vt 1.000000 0.717692
vt 0.000000 0.156952
vt 0.070262 0.356424
vt 0.000000 0.359610
vt 0.000000 0.781250
vt 1.000000 0.781250
vt 1.000000 0.156542
vt 1.000000 0.362413
vt 0.929052 0.361449
vt 1.000000 0.250000
vt 0.000000 0.250000
vt 0.000000 0.000000
vt 0.264457 0.517108
vt 0.458413 0.593635
vt 0.000030 0.593809
vt 0.000000 0.520849
vt 0.000000 0.719242
vt 1.000000 0.719242
vt 0.000000 0.466701
vt 1.000000 0.466701
vt 1.000000 0.722656
vt 0.000000 0.722656
vt 0.000000 0.468750
vt 1.000000 0.468750
vt 1.000000 0.750000
vt 0.000000 0.750000
vt 1.000000 0.157907
vt 1.000000 0.358414
vt 0.877926 0.358581
vt 0.000000 0.156867
vt 0.116839 0.361123
vt 0.000000 0.362846
vt 0.000000 0.502032
vt 1.000000 0.502032
vt 1.000000 0.716718
vt 0.000000 0.716718
vt 0.116626 0.359602
vt 0.264815 0.518650
vt 0.000000 0.519417
vt 0.000000 0.359659
vt 0.227318 0.517963
vt 0.420399 0.594140
vt 0.000000 0.594140
vt 0.000000 0.521650
vt 0.000000 0.363409
vt 0.070854 0.360120
vt 0.227209 0.512289
vt 0.000000 0.517172
s 0
usemtl Sandstone_Stretched
f 3/1/1 2/2/2 1/3/3 4/4/4
f 8/5/5 11/6/5 9/3/5 6/4/5
f 7/5/6 8/6/6 6/3/6 5/4/6
f 12/5/7 7/6/7 5/3/7 10/4/7
f 11/5/8 12/6/8 10/3/8 9/4/8
f 10/7/9 5/3/9 6/4/9 9/8/9
f 14/9/5 16/10/5 15/11/5 13/12/5
f 13/13/10 1/14/11 2/15/12 17/16/10
f 17/17/13 2/18/14 19/19/15 20/20/16
f 33/21/17 34/22/18 32/23/18 42/24/18
f 34/25/19 33/26/20 25/27/21 26/28/22
f 23/3/23 30/10/7 34/9/7 26/4/24
f 34/9/7 30/10/7 29/11/7 32/12/7
f 36/29/5 38/30/5 37/31/5 35/32/5
f 39/3/25 40/4/26 25/33/27 24/34/28
f 39/35/29 24/36/30 23/37/31
f 40/38/32 39/39/33 23/3/34 26/4/35
f 40/40/36 26/41/37 25/42/38
f 24/43/39 25/44/40 33/45/41 31/7/42
f 3/46/43 4/47/44 15/48/45 18/49/45
f 42/50/46 41/51/46 31/3/47 33/4/48
f 44/52/49 43/53/49 39/54/49 40/55/49
f 22/56/50 19/57/51 2/58/52 3/59/53
f 35/3/54 37/4/55 21/38/56 20/39/57
f 35/60/58 20/61/59 19/62/60
f 37/1/61 35/2/62 19/3/63 22/4/64
f 37/63/65 22/64/66 21/65/67
f 4/66/68 1/67/69 41/68/70 42/69/70
f 18/3/5 17/4/5 20/38/71 21/39/72
f 22/70/73 3/71/74 18/72/75 21/73/76
f 31/74/77 41/75/78 29/76/78 30/77/78
f 23/78/79 24/79/80 31/80/81 30/81/82
l 27 28
