# Blender 4.3.2
# www.blender.org
mtllib large_plantable_barrel_planter.mtl
o big_plantable_planter
v 0.502118 0.003194 -0.210708
v 1.007217 0.003194 -0.001489
v 1.216435 0.003194 0.503609
v 1.007217 0.003194 1.008708
v 0.502118 0.003194 1.217926
v -0.002980 0.003194 1.008708
v -0.212199 0.003194 0.503609
v -0.002980 0.003194 -0.001489
v 0.500104 1.000986 -0.200463
v 0.997958 1.000986 0.005755
v 1.204176 1.000986 0.503609
v 0.997958 1.000986 1.001464
v 0.500104 1.000986 1.207682
v 0.002249 1.000986 1.001464
v -0.203969 1.000986 0.503609
v 0.002249 1.000986 0.005755
v -0.098214 1.053339 -0.096722
v 0.502118 1.053339 -0.345388
v -0.346879 1.053339 0.503609
v -0.098214 1.053339 1.103941
v 0.502118 1.053339 1.352606
v 1.102450 1.053339 1.103941
v 1.351115 1.053339 0.503609
v 1.102450 1.053339 -0.096722
v -0.047346 1.053339 -0.045855
v 0.502118 1.053339 -0.273451
v -0.274942 1.053339 0.503609
v -0.047346 1.053339 1.053074
v 0.502118 1.053339 1.280669
v 1.051583 1.053339 1.053074
v 1.279178 1.053339 0.503609
v 1.051583 1.053339 -0.045855
v -0.049361 1.053339 -0.045855
v 0.500104 1.053339 -0.273451
v -0.276957 1.053339 0.503609
v -0.049361 1.053339 1.053074
v 0.500104 1.053339 1.280669
v 1.049568 1.053339 1.053074
v 1.277164 1.053339 0.503609
v 1.049568 1.053339 -0.045855
vn -0.0000 -1.0000 -0.0000
vn -0.3800 -0.1177 -0.9175
vn -0.9175 -0.1177 -0.3800
vn -0.9175 -0.1177 0.3800
vn -0.3800 -0.1177 0.9175
vn 0.3800 -0.1177 0.9175
vn 0.9175 -0.1177 0.3800
vn 0.9175 -0.1177 -0.3800
vn 0.3800 -0.1177 -0.9175
vn -0.0000 1.0000 -0.0000
vn 0.2347 0.7899 0.5666
vn 0.5666 0.7899 0.2347
vn 0.5666 0.7899 -0.2347
vn 0.2347 0.7899 -0.5666
vn -0.2347 0.7899 -0.5666
vn -0.5666 0.7899 -0.2347
vn -0.5666 0.7899 0.2347
vn -0.2347 0.7899 0.5666
vt 0.339379 0.882596
vt 0.114371 0.657588
vt 0.114371 0.339379
vt 0.339379 0.114371
vt 0.688012 0.000000
vt 0.723461 0.716954
vt 0.276539 0.716954
vt 0.311988 0.000000
vt 0.707065 0.000100
vt 0.999900 0.292935
vt 0.999900 0.707065
vt 0.292934 0.000100
vt 0.882596 0.339379
vt 0.882596 0.657588
vt 0.657588 0.882596
vt 0.657588 0.114371
vt 0.030674 0.000000
vt 0.969326 0.000000
vt 1.000000 0.089679
vt 0.000000 0.089679
vt 0.670947 0.692486
vt 0.284976 0.693996
vt 0.284976 0.693996
vt 0.261364 0.694088
vt 0.260188 0.694093
vt 0.259924 0.694094
vt 0.260188 0.694093
vt 0.261364 0.694088
vt 0.030213 0.000000
vt 0.969787 0.000000
vt 1.000000 0.091541
vt 0.000000 0.091541
vt 0.000100 0.707065
vt 0.000100 0.292935
vt 0.707065 0.999900
vt 0.292935 0.999900
s 0
usemtl Barrel_Fill.001
f 13/9/10 12/10/10 11/11/10 14/12/10
f 16/33/10 15/34/10 10/35/10 9/36/10
f 14/12/10 11/11/10 10/35/10 15/34/10
usemtl Barrel_Side.001
f 8/5/2 17/6/2 18/7/2 1/8/2
f 7/5/3 19/6/3 17/7/3 8/8/3
f 6/5/4 20/6/4 19/7/4 7/8/4
f 5/5/5 21/6/5 20/7/5 6/8/5
f 4/5/6 22/6/6 21/7/6 5/8/6
f 3/5/7 23/6/7 22/7/7 4/8/7
f 2/5/8 24/6/8 23/7/8 3/8/8
f 1/5/9 18/6/9 24/7/9 2/8/9
f 25/17/10 26/18/10 18/19/10 17/20/10
f 27/17/10 25/18/10 17/19/10 19/20/10
f 28/17/10 27/18/10 19/19/10 20/20/10
f 29/17/10 28/18/10 20/19/10 21/20/10
f 30/17/10 29/18/10 21/19/10 22/20/10
f 31/17/10 30/18/10 22/19/10 23/20/10
f 32/17/10 31/18/10 23/19/10 24/20/10
f 26/17/10 32/18/10 24/19/10 18/20/10
f 33/21/1 34/22/1 26/22/1 25/21/1
f 35/23/1 33/21/1 25/21/1 27/23/1
f 36/24/1 35/23/1 27/23/1 28/24/1
f 37/25/1 36/24/1 28/24/1 29/25/1
f 38/26/10 37/25/10 29/25/10 30/26/10
f 39/27/10 38/26/10 30/26/10 31/27/10
f 40/28/10 39/27/10 31/27/10 32/28/10
f 34/22/10 40/28/10 32/28/10 26/22/10
f 16/29/11 9/30/11 34/31/11 33/32/11
f 15/29/12 16/30/12 33/31/12 35/32/12
f 14/29/13 15/30/13 35/31/13 36/32/13
f 13/29/14 14/30/14 36/31/14 37/32/14
f 12/29/15 13/30/15 37/31/15 38/32/15
f 11/29/16 12/30/16 38/31/16 39/32/16
f 10/29/17 11/30/17 39/31/17 40/32/17
f 9/29/18 10/30/18 40/31/18 34/32/18
usemtl Barrel_Top.001
f 4/1/1 5/2/1 6/3/1 7/4/1
f 1/13/1 2/14/1 3/15/1 8/16/1
f 3/15/1 4/1/1 7/4/1 8/16/1
