# Blender 5.0.0
# www.blender.org
mtllib cypress.mtl
o Leaves.028
v 0.197100 0.682478 0.230760
v 0.777900 0.682478 0.230760
v 0.197100 -0.516234 0.442125
v 0.777900 -0.516234 0.442125
vn -0.0000 -0.1736 -0.9848
vt 0.475340 0.999845
vt 0.015625 0.999923
vt 0.015625 0.000077
vt 0.475340 0.000000
s 0
usemtl Cypress_Leaves.001
f 1/1/1 2/2/1 4/3/1 3/4/1
o Leaves.029
v 0.777900 0.682478 0.744240
v 0.197100 0.682478 0.744240
v 0.777900 -0.516234 0.532875
v 0.197100 -0.516234 0.532875
vn -0.0000 -0.1736 0.9848
vt 0.475340 0.999845
vt 0.015625 0.999923
vt 0.015625 0.000077
vt 0.475340 0.000000
s 0
usemtl Cypress_Leaves.001
f 5/5/2 6/6/2 8/7/2 7/8/2
o Leaves.030
v 0.230760 0.682478 0.777900
v 0.230760 0.682478 0.197100
v 0.442125 -0.516234 0.777900
v 0.442125 -0.516234 0.197100
vn -0.9848 -0.1736 -0.0000
vt 0.475340 0.999845
vt 0.015625 0.999923
vt 0.015625 0.000077
vt 0.475340 0.000000
s 0
usemtl Cypress_Leaves.001
f 9/9/3 10/10/3 12/11/3 11/12/3
o Leaves.031
v 0.744240 0.682478 0.197100
v 0.744240 0.682478 0.777900
v 0.532875 -0.516234 0.197100
v 0.532875 -0.516234 0.777900
vn 0.9848 -0.1736 -0.0000
vt 0.475340 0.999845
vt 0.015625 0.999923
vt 0.015625 0.000077
vt 0.475340 0.000000
s 0
usemtl Cypress_Leaves.001
f 13/13/4 14/14/4 16/15/4 15/16/4
o Leaves.032
v 0.226140 1.156357 0.256434
v 0.748860 1.156357 0.256434
v 0.226140 0.077516 0.446662
v 0.748860 0.077516 0.446662
vn -0.0000 -0.1736 -0.9848
vt 0.475340 0.999845
vt 0.015625 0.999923
vt 0.015625 0.000077
vt 0.475340 0.000000
s 0
usemtl Cypress_Leaves.001
f 17/17/5 18/18/5 20/19/5 19/20/5
o Leaves.033
v 0.748860 1.156357 0.718566
v 0.226140 1.156357 0.718566
v 0.748860 0.077516 0.528338
v 0.226140 0.077516 0.528338
vn -0.0000 -0.1736 0.9848
vt 0.475340 0.999845
vt 0.015625 0.999923
vt 0.015625 0.000077
vt 0.475340 0.000000
s 0
usemtl Cypress_Leaves.001
f 21/21/6 22/22/6 24/23/6 23/24/6
o Leaves.034
v 0.256434 1.156357 0.748860
v 0.256434 1.156357 0.226140
v 0.446662 0.077516 0.748860
v 0.446662 0.077516 0.226140
vn -0.9848 -0.1736 -0.0000
vt 0.475340 0.999845
vt 0.015625 0.999923
vt 0.015625 0.000077
vt 0.475340 0.000000
s 0
usemtl Cypress_Leaves.001
f 25/25/7 26/26/7 28/27/7 27/28/7
o Leaves.035
v 0.718566 1.156357 0.226140
v 0.718566 1.156357 0.748860
v 0.528338 0.077516 0.226140
v 0.528338 0.077516 0.748860
vn 0.9848 -0.1736 -0.0000
vt 0.475340 0.999845
vt 0.015625 0.999923
vt 0.015625 0.000077
vt 0.475340 0.000000
s 0
usemtl Cypress_Leaves.001
f 29/29/8 30/30/8 32/31/8 31/32/8
o Leaves.036
v 0.249900 1.632121 0.363577
v 0.725100 1.632121 0.363577
v 0.249900 0.640016 0.450375
v 0.725100 0.640016 0.450375
vn -0.0000 -0.0872 -0.9962
vt 0.475340 0.999845
vt 0.015625 0.999923
vt 0.015625 0.000077
vt 0.475340 0.000000
s 0
usemtl Cypress_Leaves.001
f 33/33/9 34/34/9 36/35/9 35/36/9
o Leaves.037
v 0.725100 1.632121 0.611423
v 0.249900 1.632121 0.611423
v 0.725100 0.640016 0.524625
v 0.249900 0.640016 0.524625
vn -0.0000 -0.0872 0.9962
vt 0.475340 0.999845
vt 0.015625 0.999923
vt 0.015625 0.000077
vt 0.475340 0.000000
s 0
usemtl Cypress_Leaves.001
f 37/37/10 38/38/10 40/39/10 39/40/10
o Leaves.038
v 0.363577 1.632121 0.725100
v 0.363577 1.632121 0.249900
v 0.450375 0.640016 0.725100
v 0.450375 0.640016 0.249900
vn -0.9962 -0.0872 -0.0000
vt 0.475340 0.999845
vt 0.015625 0.999923
vt 0.015625 0.000077
vt 0.475340 0.000000
s 0
usemtl Cypress_Leaves.001
f 41/41/11 42/42/11 44/43/11 43/44/11
o Leaves.039
v 0.611423 1.632121 0.249900
v 0.611423 1.632121 0.725100
v 0.524625 0.640016 0.249900
v 0.524625 0.640016 0.725100
vn 0.9962 -0.0872 -0.0000
vt 0.475340 0.999845
vt 0.015625 0.999923
vt 0.015625 0.000077
vt 0.475340 0.000000
s 0
usemtl Cypress_Leaves.001
f 45/45/12 46/46/12 48/47/12 47/48/12
o Leaves.040
v 0.677580 2.030482 0.487500
v 0.297420 2.030482 0.487500
v 0.677580 1.233766 0.487500
v 0.297420 1.233766 0.487500
vn -0.0000 -0.0000 1.0000
vt 0.475340 0.999845
vt 0.015625 0.999923
vt 0.015625 0.000077
vt 0.475340 0.000000
s 0
usemtl Cypress_Leaves.001
f 49/49/13 50/50/13 52/51/13 51/52/13
o Leaves.041
v 0.487500 2.030482 0.677580
v 0.487500 2.030482 0.297420
v 0.487500 1.233766 0.677580
v 0.487500 1.233766 0.297420
vn -1.0000 -0.0000 -0.0000
vt 0.475340 0.999845
vt 0.015625 0.999923
vt 0.015625 0.000077
vt 0.475340 0.000000
s 0
usemtl Cypress_Leaves.001
f 53/53/14 54/54/14 56/55/14 55/56/14
o Leaves.044
v 0.297420 2.030482 0.487500
v 0.677580 2.030482 0.487500
v 0.297420 1.233766 0.487500
v 0.677580 1.233766 0.487500
vn -0.0000 -0.0000 -1.0000
vt 0.475340 0.999845
vt 0.015625 0.999923
vt 0.015625 0.000077
vt 0.475340 0.000000
s 0
usemtl Cypress_Leaves.001
f 57/57/15 58/58/15 60/59/15 59/60/15
o Leaves.045
v 0.487500 2.030482 0.297420
v 0.487500 2.030482 0.677580
v 0.487500 1.233766 0.297420
v 0.487500 1.233766 0.677580
vn 1.0000 -0.0000 -0.0000
vt 0.475340 0.999845
vt 0.015625 0.999923
vt 0.015625 0.000077
vt 0.475340 0.000000
s 0
usemtl Cypress_Leaves.001
f 61/61/16 62/62/16 64/63/16 63/64/16
o Leaves.042
v 0.487500 2.030482 0.677580
v 0.487500 2.030482 0.297420
v 0.487500 1.233766 0.677580
v 0.487500 1.233766 0.297420
vn -1.0000 -0.0000 -0.0000
vt 0.475340 0.999845
vt 0.015625 0.999923
vt 0.015625 0.000077
vt 0.475340 0.000000
s 0
usemtl Cypress_Leaves.001
f 65/65/17 66/66/17 68/67/17 67/68/17
o Leaves.043
v 0.677580 2.030482 0.487500
v 0.297420 2.030482 0.487500
v 0.677580 1.233766 0.487500
v 0.297420 1.233766 0.487500
vn -0.0000 -0.0000 1.0000
vt 0.475340 0.999845
vt 0.015625 0.999923
vt 0.015625 0.000077
vt 0.475340 0.000000
s 0
usemtl Cypress_Leaves.001
f 69/69/18 70/70/18 72/71/18 71/72/18
o Trunk.004_Cube.008
v 0.461667 -0.674567 0.521667
v 0.461667 -0.518317 0.521667
v 0.461667 -0.674567 0.461667
v 0.461667 -0.518317 0.461667
v 0.521667 -0.674567 0.521667
v 0.521667 -0.518317 0.521667
v 0.521667 -0.674567 0.461667
v 0.521667 -0.518317 0.461667
vn -1.0000 -0.0000 -0.0000
vn -0.0000 -0.0000 -1.0000
vn 1.0000 -0.0000 -0.0000
vn -0.0000 -0.0000 1.0000
vn -0.0000 -1.0000 -0.0000
vn -0.0000 1.0000 -0.0000
vt 0.002702 0.995320
vt 0.002220 -0.004680
vt 1.002220 -0.005163
vt 1.002702 0.994837
vt 0.000839 1.000838
vt -0.000838 0.000839
vt 0.999161 -0.000838
vt 1.000838 0.999161
vt -0.000261 0.999739
vt 0.000261 -0.000261
vt 1.000261 0.000261
vt 0.999739 1.000261
vt -0.000609 0.999391
vt 0.000609 -0.000609
vt 1.000609 0.000609
vt 0.999391 1.000609
vt 0.000000 0.000000
vt 1.000000 0.000000
vt 1.000000 1.000000
vt 0.000000 1.000000
s 1
usemtl Wood
f 73/73/19 74/74/19 76/75/19 75/76/19
f 75/77/20 76/78/20 80/79/20 79/80/20
f 79/81/21 80/82/21 78/83/21 77/84/21
f 77/85/22 78/86/22 74/87/22 73/88/22
f 75/89/23 79/90/23 77/91/23 73/92/23
f 80/89/24 76/90/24 74/91/24 78/92/24
